<?xml version="1.0" encoding="utf-8"?>
<!-- Generator: Adobe Illustrator 28.1.0, SVG Export Plug-In . SVG Version: 6.00 Build 0)  -->
<svg version="1.1" id="Layer_1" xmlns="http://www.w3.org/2000/svg" xmlns:xlink="http://www.w3.org/1999/xlink" x="0px" y="0px"
     viewBox="0 0 225 30.6" style="enable-background:new 0 0 225 30.6;" xml:space="preserve">
<style type="text/css">
	.st0{fill:#212322;}
	.st1{fill:#D64000;}
	.st2{fill:#E82C00;}
</style>
    <path class="st0" d="M253.9,546.2V567h12c6.9,0,11.3-4.1,11.3-10.3s-4.4-10.4-11.3-10.4L253.9,546.2L253.9,546.2z M239.2,534.2h27.9
	c15.1,0,25.1,8.8,25.1,22.5c0,8.7-4.6,15.6-11.7,19l13.5,26.1h-16.2l-11.5-22.7H254v22.7h-14.7L239.2,534.2L239.2,534.2z"/>
    <path class="st0" d="M333.5,571.1c-1-6.1-5.2-9.5-11.5-9.5s-10.5,3.6-11.2,9.5H333.5z M296.1,577c0-15.5,10.3-25.5,25.8-25.5
	c15.6,0,25.2,9.3,25.4,23.8c0,1.5-0.1,3.1-0.4,4.6h-36.5v0.7c0.3,7,4.9,11.3,11.8,11.3c5.6,0,9.5-2.4,10.7-7h13.6
	c-1.6,9.7-10.3,17.4-23.7,17.4C306.2,602.3,296.1,592.4,296.1,577L296.1,577z"/>
    <path class="st0" d="M387.2,552.1H401v49.6h-12.2l-1.3-6c-3.2,3.9-7.6,6.6-14.8,6.6c-10.4,0-20-5.1-20-22.7v-27.5h13.8v25.7
	c0,8.9,2.9,13.2,9.8,13.2s10.9-4.9,10.9-14.1V552.1L387.2,552.1L387.2,552.1z"/>
    <path class="st0" d="M409.2,538.2H423v13.9h11.5v11.5H423v21.7c0,3.5,1.4,4.9,4.9,4.9h7.1v11.5h-11.5c-9.6,0-14.4-4.7-14.4-14.2
	L409.2,538.2L409.2,538.2z"/>
    <path class="st0" d="M474.7,571.1c-1-6.1-5.2-9.5-11.5-9.5s-10.5,3.6-11.2,9.5H474.7z M437.3,577c0-15.5,10.3-25.5,25.8-25.5
	c15.6,0,25.2,9.3,25.4,23.8c0,1.5-0.1,3.1-0.4,4.6h-36.5v0.7c0.3,7,4.9,11.3,11.8,11.3c5.6,0,9.5-2.4,10.7-7h13.6
	c-1.6,9.7-10.3,17.4-23.7,17.4C447.4,602.3,437.3,592.4,437.3,577z"/>
    <path class="st0" d="M525.3,552.1v12.4h-5.5c-8.2,0-11.3,5.4-11.3,12.9v24.3h-13.8v-49.6h12.5l1.3,7.4c2.7-4.4,6.6-7.4,14.5-7.4
	L525.3,552.1L525.3,552.1z"/>
    <path class="st0" d="M540.6,585.2c0.5,4.3,4.3,7.3,11.1,7.3c5.8,0,9.3-1.8,9.3-5.3c0-4.1-3.4-4.3-11.5-5.4
	c-11.7-1.4-20.8-4-20.8-14.2s8.7-16.3,21.6-16.2c13.5,0,22.8,5.9,23.5,16h-13.2c-0.4-4-4.2-6.4-9.8-6.4s-8.9,1.9-8.9,5.1
	c0,3.8,4.3,4.2,11.5,5c11.5,1.2,21.1,3.8,21.1,15c0,9.8-9.4,16.1-22.9,16.1s-23.5-6.5-24.1-17.1L540.6,585.2L540.6,585.2
	L540.6,585.2z"/>
    <polygon class="st0" points="-209.1,534.1 -154.8,534.1 -154.8,546.6 -174.7,546.6 -174.7,601.7 -189.3,601.7 -189.3,546.6
	-209.1,546.6 "/>
    <path class="st0" d="M-101.5,574.2v27.5h-13.8v-26.4c0-8.1-3.3-12.7-10.2-12.7s-11.2,5-11.2,13.5v25.5h-13.8V534h13.8v24.1
	c3.2-3.9,7.7-6.7,14.9-6.7C-110.7,551.5-101.5,557.4-101.5,574.2L-101.5,574.2L-101.5,574.2z"/>
    <path class="st0" d="M-57.2,576.9c0-8.4-4.8-14.3-12.5-14.3s-12.4,5.9-12.4,14.3s4.7,14.3,12.4,14.3S-57.2,585.3-57.2,576.9z
	 M-96.3,576.9c0-15.3,10.5-25.4,26.5-25.4s26.5,10.1,26.5,25.4c0,15.3-10.5,25.4-26.5,25.4S-96.3,592.2-96.3,576.9z"/>
    <path class="st0" d="M41.7,573.2v28.5H27.9V574c0-7.4-2.7-11.3-8.7-11.3s-10,4.3-10,11.9v27.1H-4.6V574c0-7.4-2.7-11.3-8.8-11.3
	s-9.9,4.5-9.9,12v27h-13.8v-49.6h12l1.3,6.2c3-3.9,7.4-6.7,14.8-6.8c6.2-0.1,11.9,2.1,15.1,8.4c3.5-5.3,9.4-8.4,17-8.4
	C33.4,551.5,41.6,557.3,41.7,573.2L41.7,573.2z"/>
    <path class="st0" d="M60,585.2c0.5,4.3,4.3,7.3,11.1,7.3c5.8,0,9.3-1.8,9.3-5.3c0-4.1-3.4-4.3-11.6-5.4c-11.7-1.4-20.8-4-20.8-14.2
	s8.7-16.3,21.6-16.2c13.5,0,22.8,5.9,23.5,16H79.9c-0.4-4-4.2-6.4-9.8-6.4s-8.9,1.9-8.9,5.1c0,3.8,4.3,4.2,11.6,5
	c11.5,1.2,21.1,3.8,21.1,15c0,9.8-9.4,16.1-22.9,16.1s-23.5-6.5-24.1-17.1L60,585.2L60,585.2L60,585.2z"/>
    <path class="st0" d="M136.3,576.9c0-8.4-4.8-14.3-12.5-14.3s-12.4,5.9-12.4,14.3s4.7,14.3,12.4,14.3
	C131.5,591.2,136.3,585.3,136.3,576.9z M97.3,576.9c0-15.3,10.5-25.4,26.5-25.4s26.5,10.1,26.5,25.4c0,15.3-10.5,25.4-26.5,25.4
	C107.8,602.3,97.3,592.2,97.3,576.9z"/>
    <path class="st0" d="M205.4,574.2v27.5h-13.8v-26.2c0-8.4-3.2-12.8-10.2-12.8c-6.9,0-11.2,5-11.2,13.6v25.4h-13.8v-49.6h12l1.3,6.2
	c3.2-3.9,7.8-6.8,15.6-6.8C196.1,551.5,205.4,557.2,205.4,574.2L205.4,574.2z"/>
    <path class="st1" d="M-260.1,519c1.7,1.7,2.7,4,2.7,6.5s-0.9,4.7-2.7,6.5c-3.6,3.6-9.4,3.6-12.9,0c-1.7-1.7-2.7-4-2.7-6.5
	s0.9-4.7,2.7-6.5s4.1-2.7,6.5-2.7C-264.2,516.3-261.9,517.2-260.1,519z"/>
    <path class="st1" d="M-358.9,617.8c-3.6-3.6-3.6-9.4,0-12.9c1.7-1.7,4-2.7,6.5-2.7c2.4,0,4.7,0.9,6.5,2.7c3.6,3.6,3.6,9.4,0,12.9
	c-1.7,1.7-4,2.7-6.5,2.7C-354.8,620.5-357.1,619.6-358.9,617.8z"/>
    <path class="st1" d="M-289.3,519.7L-289.3,519.7c-2-0.8-3.5-2.4-4.3-4.3c-0.8-2-0.8-4.1,0-6.1c0.8-2,2.4-3.5,4.3-4.3
	c1-0.4,2-0.6,3.1-0.6c1,0,2.1,0.2,3.1,0.6c4.1,1.7,6,6.4,4.3,10.4C-280.5,519.4-285.2,521.4-289.3,519.7z"/>
    <path class="st1" d="M-332.7,616.5c1,0,2.1,0.2,3.1,0.6c4.1,1.7,6,6.4,4.3,10.4c-0.8,2-2.4,3.5-4.3,4.3c-2,0.8-4.1,0.8-6.1,0
	c-4.1-1.7-6-6.4-4.3-10.4c0.8-2,2.4-3.5,4.3-4.3C-334.8,616.7-333.8,616.5-332.7,616.5L-332.7,616.5z"/>
    <path class="st1" d="M-302.6,507.7c0,3.7-2.9,6.7-6.5,6.8h-0.3c-3.8,0-6.8-3.1-6.8-6.8s3.1-6.8,6.8-6.8
	C-305.7,500.9-302.6,503.9-302.6,507.7L-302.6,507.7z"/>
    <ellipse transform="matrix(0.9993 -3.837648e-02 3.837648e-02 0.9993 -24.3706 -11.4141)" class="st1" cx="-309.5" cy="629.1" rx="6.8" ry="6.8"/>
    <path class="st1" d="M-330.5,517.6c-1.4,0.6-3,0.6-4.4,0s-2.5-1.7-3.1-3.1c-1.2-2.9,0.2-6.3,3.1-7.5c0.7-0.3,1.4-0.4,2.2-0.4
	c2.2,0,4.4,1.3,5.3,3.5c0.6,1.4,0.6,3,0,4.4S-329.1,517-330.5,517.6z"/>
    <path class="st1" d="M-288.4,619.2c0.7-0.3,1.5-0.4,2.2-0.4c0.7,0,1.5,0.2,2.2,0.4c1.4,0.6,2.5,1.7,3.1,3.1c0.6,1.4,0.6,3,0,4.4
	s-1.7,2.5-3.1,3.1s-3,0.6-4.4,0s-2.5-1.7-3.1-3.1s-0.6-3,0-4.4S-289.9,619.8-288.4,619.2z"/>
    <path class="st1" d="M-349.2,522.2c1.8,1.8,1.8,4.6,0.1,6.4l-0.1,0.1c-1.8,1.8-4.7,1.8-6.5,0c-1.8-1.8-1.8-4.7,0-6.5
	c0.9-0.9,2.1-1.3,3.2-1.3C-351.3,520.9-350.1,521.4-349.2,522.2L-349.2,522.2z"/>
    <path class="st1" d="M-269.8,608.1c0.9-0.9,2.1-1.3,3.2-1.3s2.3,0.4,3.2,1.3c0.9,0.9,1.3,2,1.3,3.2s-0.5,2.4-1.3,3.2
	c-1.8,1.8-4.7,1.8-6.5,0c-0.9-0.9-1.3-2-1.3-3.2S-270.7,609-269.8,608.1L-269.8,608.1z"/>
    <path class="st1" d="M-367.8,550.4c-2.9-1.2-4.3-4.6-3.1-7.5c0.6-1.4,1.7-2.5,3.1-3.1c0.7-0.3,1.5-0.4,2.2-0.4s1.5,0.1,2.2,0.4
	c2.9,1.2,4.3,4.6,3.1,7.5c-0.6,1.4-1.7,2.5-3.1,3.1C-364.8,551-366.4,551-367.8,550.4L-367.8,550.4z"/>
    <path class="st1" d="M-251.2,586.4c1.4,0.6,2.5,1.7,3.1,3.1c0.6,1.4,0.6,3,0,4.4c-1.2,2.9-4.5,4.3-7.5,3.1c-1.4-0.6-2.5-1.7-3.1-3.1
	c-0.6-1.4-0.6-3,0-4.4c0.9-2.2,3-3.5,5.3-3.5C-252.6,586-251.9,586.1-251.2,586.4z"/>
    <circle class="st1" cx="-370.2" cy="568.4" r="6.8"/>
    <ellipse transform="matrix(2.415436e-03 -1 1 2.415436e-03 -816.4976 318.3278)" class="st1" cx="-248.7" cy="568.4" rx="6.8" ry="6.8"/>
    <path class="st1" d="M-373,594.7c-1.7-4.1,0.2-8.7,4.3-10.4c2-0.8,4.1-0.8,6.1,0s3.5,2.4,4.3,4.3c0.8,1.9,0.8,4.1,0,6.1
	c-0.8,2-2.4,3.5-4.3,4.3c-2,0.8-4.1,0.8-6.1,0C-370.7,598.2-372.2,596.7-373,594.7z"/>
    <path class="st1" d="M-260.8,548.2c-0.8-2-0.8-4.1,0-6.1c0.8-2,2.4-3.5,4.3-4.3c1-0.4,2-0.6,3-0.6c3.1,0,6.1,1.9,7.4,4.9
	c1.7,4.1-0.2,8.7-4.3,10.4c-2,0.8-4.1,0.8-6.1,0C-258.4,551.7-260,550.2-260.8,548.2L-260.8,548.2z"/>
    <path class="st1" d="M-289.8,588.1c-2.4,2.4-2.4,6.2,0,8.6c2.4,2.4,6.2,2.4,8.6,0c1.2-1.2,1.8-2.7,1.8-4.3s-0.6-3.2-1.8-4.3
	c-1.2-1.2-2.7-1.8-4.3-1.8S-288.6,586.9-289.8,588.1L-289.8,588.1z M-290,587.8l0.2,0.2L-290,587.8z M-290,587.8l0.2,0.2L-290,587.8
	z M-290,587.8c-2.5,2.5-2.5,6.6,0,9.1s6.6,2.5,9.1,0c1.2-1.2,1.9-2.8,1.9-4.5s-0.7-3.3-1.9-4.5c-1.2-1.2-2.9-1.9-4.5-1.9
	S-288.8,586.6-290,587.8L-290,587.8z"/>
    <path class="st1" d="M-343.6,564.5c-2.7-0.7-4.3-3.5-3.6-6.2c0.4-1.3,1.2-2.4,2.4-3.1c0.8-0.5,1.7-0.7,2.5-0.7
	c0.4,0,0.9,0.1,1.3,0.2c1.3,0.4,2.4,1.2,3.1,2.4s0.9,2.6,0.5,3.9C-338.1,563.6-340.9,565.3-343.6,564.5L-343.6,564.5z"/>
    <path class="st1" d="M-278,582.1c-1.3-0.4-2.4-1.2-3.1-2.4c-0.7-1.2-0.9-2.6-0.5-3.9c0.4-1.3,1.2-2.4,2.4-3.1
	c0.8-0.5,1.7-0.7,2.5-0.7c0.4,0,0.7,0,1.1,0.1l0.2,0.1c2.7,0.7,4.3,3.5,3.6,6.2c-0.4,1.3-1.2,2.4-2.4,3.1
	C-275.4,582.2-276.7,582.4-278,582.1L-278,582.1z"/>
    <path class="st1" d="M-346.2,578.2c-0.6-2.1,0.6-4.2,2.6-4.9l0.2-0.1c2.2-0.6,4.4,0.7,5,2.9c0.3,1.1,0.1,2.1-0.4,3.1
	c-0.5,0.9-1.4,1.6-2.5,1.9c-1.1,0.3-2.1,0.1-3.1-0.4C-345.2,580.2-345.9,579.3-346.2,578.2L-346.2,578.2z"/>
    <path class="st1" d="M-278.8,563.2l-0.2-0.1c-0.8-0.6-1.5-1.4-1.7-2.4c-0.6-2.2,0.7-4.4,2.9-5c2.2-0.6,4.4,0.7,5,2.9
	c0.6,2.2-0.7,4.4-2.9,5C-276.7,563.9-277.8,563.7-278.8,563.2L-278.8,563.2z"/>
    <path class="st1" d="M-331.2,594.4L-331.2,594.4c-1.3,1.3-3.2,1.3-4.4,0.1c-1.2-1.2-1.2-3.1,0-4.3c1.2-1.2,3.1-1.2,4.3,0
	c0.6,0.6,0.9,1.3,0.9,2.2C-330.4,593.1-330.7,593.8-331.2,594.4z"/>
    <path class="st1" d="M-283.4,542.2c0.6,0.6,0.9,1.3,0.9,2.2s-0.3,1.6-0.9,2.2c-1.2,1.2-3.1,1.2-4.3,0c-0.6-0.6-0.9-1.3-0.9-2.2
	s0.3-1.6,0.9-2.2c0.6-0.6,1.3-0.9,2.2-0.9S-283.9,541.7-283.4,542.2L-283.4,542.2z"/>
    <path class="st1" d="M-314.7,599.1c0.5,0.9,0.7,2,0.4,3.1c-0.3,1.1-1,1.9-1.9,2.5c-0.9,0.6-2,0.7-3.1,0.4c-2.2-0.6-3.5-2.8-2.9-5
	c0.3-1.1,1-1.9,1.9-2.5c0.9-0.5,2-0.7,3.1-0.4C-316.2,597.5-315.3,598.2-314.7,599.1L-314.7,599.1z"/>
    <path class="st1" d="M-304.3,537.7c-0.5-0.9-0.7-2-0.4-3.1c0.3-1.1,1-1.9,1.9-2.5c0.6-0.4,1.3-0.5,2-0.5c0.4,0,0.7,0,1.1,0.1
	c1.1,0.3,1.9,1,2.5,1.9c0.5,0.9,0.7,2,0.4,3.1c-0.6,2.2-2.8,3.5-5,2.9C-302.8,539.3-303.7,538.7-304.3,537.7z"/>
    <path class="st1" d="M-298.1,596.8l0.2,0.1c1.1,0.7,1.8,1.7,2.1,3c0.7,2.7-0.9,5.5-3.6,6.2c-1.3,0.4-2.7,0.2-3.9-0.5
	c-1.2-0.7-2-1.8-2.4-3.1c-0.4-1.3-0.2-2.7,0.5-3.9c0.7-1.2,1.8-2,3.1-2.4c0.4-0.1,0.9-0.2,1.3-0.2
	C-299.8,596.1-298.9,596.3-298.1,596.8L-298.1,596.8z"/>
    <path class="st1" d="M-316.9,540.6c-2.7,0.7-5.5-0.9-6.2-3.6c-0.7-2.7,0.9-5.5,3.6-6.2c0.4-0.1,0.9-0.2,1.3-0.2
	c2.2,0,4.3,1.5,4.9,3.8C-312.6,537.1-314.2,539.8-316.9,540.6z"/>
    <circle class="st1" cx="-333.5" cy="544.4" r="6.4"/>
    <path class="st0" d="M141.5,10.3V15h2.7c1.6,0,2.5-0.9,2.5-2.3s-1-2.3-2.5-2.3L141.5,10.3L141.5,10.3z M138.2,7.6h6.2
	c3.4,0,5.6,2,5.6,5c0,1.9-1,3.5-2.6,4.3l3,5.8h-3.6l-2.6-5.1h-2.8v5.1h-3.3L138.2,7.6L138.2,7.6z"/>
    <path class="st0" d="M159.3,15.9c-0.2-1.4-1.2-2.1-2.6-2.1c-1.4,0-2.3,0.8-2.5,2.1H159.3z M150.9,17.2c0-3.5,2.3-5.7,5.8-5.7
	s5.6,2.1,5.7,5.3c0,0.3,0,0.7-0.1,1h-8.2V18c0.1,1.6,1.1,2.5,2.6,2.5c1.2,0,2.1-0.5,2.4-1.6h3c-0.4,2.2-2.3,3.9-5.3,3.9
	C153.2,22.9,150.9,20.7,150.9,17.2L150.9,17.2z"/>
    <path class="st0" d="M171.3,11.6h3.1v11.1h-2.7l-0.3-1.3c-0.7,0.9-1.7,1.5-3.3,1.5c-2.3,0-4.5-1.1-4.5-5.1v-6.2h3.1v5.7
	c0,2,0.7,3,2.2,3c1.5,0,2.4-1.1,2.4-3.2V11.6L171.3,11.6L171.3,11.6z"/>
    <path class="st0" d="M176.2,8.5h3.1v3.1h2.6v2.6h-2.6v4.9c0,0.8,0.3,1.1,1.1,1.1h1.6v2.6h-2.6c-2.1,0-3.2-1.1-3.2-3.2L176.2,8.5
	L176.2,8.5z"/>
    <path class="st0" d="M190.9,15.9c-0.2-1.4-1.2-2.1-2.6-2.1s-2.3,0.8-2.5,2.1H190.9z M182.5,17.2c0-3.5,2.3-5.7,5.8-5.7
	c3.5,0,5.6,2.1,5.7,5.3c0,0.3,0,0.7-0.1,1h-8.2V18c0.1,1.6,1.1,2.5,2.6,2.5c1.2,0,2.1-0.5,2.4-1.6h3c-0.4,2.2-2.3,3.9-5.3,3.9
	C184.8,22.9,182.5,20.7,182.5,17.2z"/>
    <path class="st0" d="M202.2,11.6v2.8H201c-1.8,0-2.5,1.2-2.5,2.9v5.4h-3.1V11.6h2.8l0.3,1.7c0.6-1,1.5-1.7,3.2-1.7L202.2,11.6
	L202.2,11.6z"/>
    <path class="st0" d="M205.6,19.1c0.1,1,1,1.6,2.5,1.6c1.3,0,2.1-0.4,2.1-1.2c0-0.9-0.8-1-2.6-1.2c-2.6-0.3-4.7-0.9-4.7-3.2
	c0-2.3,2-3.7,4.8-3.6c3,0,5.1,1.3,5.3,3.6h-3c-0.1-0.9-0.9-1.4-2.2-1.4c-1.2,0-2,0.4-2,1.1c0,0.8,1,0.9,2.6,1.1
	c2.6,0.3,4.7,0.8,4.7,3.4c0,2.2-2.1,3.6-5.1,3.6s-5.3-1.4-5.4-3.8L205.6,19.1L205.6,19.1L205.6,19.1z"/>
    <polygon class="st0" points="37.9,7.6 50,7.6 50,10.4 45.6,10.4 45.6,22.7 42.3,22.7 42.3,10.4 37.9,10.4 37.9,7.6 "/>
    <path class="st0" d="M61.9,16.6v6.2h-3.1v-5.9c0-1.8-0.7-2.8-2.3-2.8C55,14,54,15.1,54,17v5.7H51V7.6H54V13c0.7-0.9,1.7-1.5,3.3-1.5
	C59.9,11.5,61.9,12.8,61.9,16.6L61.9,16.6L61.9,16.6z"/>
    <path class="st0" d="M71.8,17.2c0-1.9-1.1-3.2-2.8-3.2c-1.7,0-2.8,1.3-2.8,3.2s1.1,3.2,2.8,3.2S71.8,19.1,71.8,17.2z M63.1,17.2
	c0-3.4,2.3-5.7,5.9-5.7c3.6,0,5.9,2.3,5.9,5.7s-2.3,5.7-5.9,5.7C65.4,22.9,63.1,20.6,63.1,17.2z"/>
    <path class="st0" d="M94,16.4v6.4h-3.1v-6.2c0-1.7-0.6-2.5-1.9-2.5c-1.3,0-2.2,1-2.2,2.7v6.1h-3.1v-6.2c0-1.7-0.6-2.5-2-2.5
	c-1.4,0-2.2,1-2.2,2.7v6.1h-3.1V11.6H79l0.3,1.4c0.7-0.9,1.7-1.5,3.3-1.5c1.4,0,2.7,0.5,3.4,1.9c0.8-1.2,2.1-1.9,3.8-1.9
	C92.1,11.5,94,12.8,94,16.4L94,16.4z"/>
    <path class="st0" d="M98.1,19.1c0.1,1,1,1.6,2.5,1.6c1.3,0,2.1-0.4,2.1-1.2c0-0.9-0.8-1-2.6-1.2c-2.6-0.3-4.7-0.9-4.7-3.2
	s1.9-3.7,4.8-3.6c3,0,5.1,1.3,5.3,3.6h-3c-0.1-0.9-0.9-1.4-2.2-1.4c-1.2,0-2,0.4-2,1.1c0,0.8,1,0.9,2.6,1.1c2.6,0.3,4.7,0.8,4.7,3.4
	c0,2.2-2.1,3.6-5.1,3.6c-3,0-5.3-1.4-5.4-3.8L98.1,19.1L98.1,19.1L98.1,19.1z"/>
    <path class="st0" d="M115.2,17.2c0-1.9-1.1-3.2-2.8-3.2c-1.7,0-2.8,1.3-2.8,3.2s1.1,3.2,2.8,3.2S115.2,19.1,115.2,17.2z M106.4,17.2
	c0-3.4,2.3-5.7,5.9-5.7c3.6,0,5.9,2.3,5.9,5.7s-2.3,5.7-5.9,5.7C108.8,22.9,106.4,20.6,106.4,17.2z"/>
    <path class="st0" d="M130.6,16.6v6.2h-3.1v-5.9c0-1.9-0.7-2.9-2.3-2.9c-1.6,0-2.5,1.1-2.5,3v5.7h-3.1V11.6h2.7l0.3,1.4
	c0.7-0.9,1.8-1.5,3.5-1.5C128.5,11.5,130.6,12.8,130.6,16.6L130.6,16.6z"/>
    <path class="st2" d="M26.4,4.2C26.8,4.6,27,5.1,27,5.7c0,0.5-0.2,1.1-0.6,1.4c-0.8,0.8-2.1,0.8-2.9,0C23.2,6.7,23,6.2,23,5.7
	c0-0.5,0.2-1.1,0.6-1.4C24,3.8,24.5,3.6,25,3.6C25.5,3.6,26,3.8,26.4,4.2z"/>
    <path class="st2" d="M4.3,26.3c-0.8-0.8-0.8-2.1,0-2.9c0.4-0.4,0.9-0.6,1.4-0.6c0.5,0,1.1,0.2,1.4,0.6c0.8,0.8,0.8,2.1,0,2.9
	c-0.4,0.4-0.9,0.6-1.4,0.6C5.2,26.9,4.7,26.7,4.3,26.3z"/>
    <path class="st2" d="M19.9,4.4L19.9,4.4c-0.4-0.2-0.8-0.5-1-1c-0.2-0.4-0.2-0.9,0-1.4c0.2-0.4,0.5-0.8,1-1c0.2-0.1,0.5-0.1,0.7-0.1
	c0.2,0,0.5,0,0.7,0.1c0.9,0.4,1.3,1.4,1,2.3C21.9,4.3,20.8,4.8,19.9,4.4z"/>
    <path class="st2" d="M10.2,26.1c0.2,0,0.5,0,0.7,0.1c0.9,0.4,1.3,1.4,1,2.3c-0.2,0.4-0.5,0.8-1,1c-0.4,0.2-0.9,0.2-1.4,0
	c-0.9-0.4-1.3-1.4-1-2.3c0.2-0.4,0.5-0.8,1-1C9.7,26.1,10,26.1,10.2,26.1L10.2,26.1z"/>
    <path class="st2" d="M16.9,1.7c0,0.8-0.7,1.5-1.5,1.5h-0.1c-0.8,0-1.5-0.7-1.5-1.5s0.7-1.5,1.5-1.5C16.2,0.2,16.9,0.9,16.9,1.7
	L16.9,1.7z"/>
    <circle class="st2" cx="15.4" cy="28.9" r="1.5"/>
    <path class="st2" d="M10.7,3.9C10.4,4,10,4,9.7,3.9C9.4,3.8,9.1,3.5,9,3.2c-0.3-0.7,0-1.4,0.7-1.7c0.2-0.1,0.3-0.1,0.5-0.1
	c0.5,0,1,0.3,1.2,0.8c0.1,0.3,0.1,0.7,0,1C11.2,3.5,11,3.8,10.7,3.9z"/>
    <path class="st2" d="M20.1,26.7c0.2-0.1,0.3-0.1,0.5-0.1c0.2,0,0.3,0,0.5,0.1c0.3,0.1,0.6,0.4,0.7,0.7c0.1,0.3,0.1,0.7,0,1
	c-0.1,0.3-0.4,0.6-0.7,0.7c-0.3,0.1-0.7,0.1-1,0s-0.6-0.4-0.7-0.7c-0.1-0.3-0.1-0.7,0-1C19.5,27,19.8,26.8,20.1,26.7z"/>
    <path class="st2" d="M6.5,5c0.4,0.4,0.4,1,0,1.4l0,0c-0.4,0.4-1,0.4-1.4,0s-0.4-1,0-1.4c0.2-0.2,0.5-0.3,0.7-0.3
	C6,4.7,6.3,4.8,6.5,5L6.5,5z"/>
    <path class="st2" d="M24.3,24.2c0.2-0.2,0.5-0.3,0.7-0.3c0.3,0,0.5,0.1,0.7,0.3c0.2,0.2,0.3,0.4,0.3,0.7c0,0.3-0.1,0.5-0.3,0.7
	c-0.4,0.4-1,0.4-1.4,0c-0.2-0.2-0.3-0.5-0.3-0.7S24.1,24.4,24.3,24.2L24.3,24.2z"/>
    <path class="st2" d="M2.3,11.3c-0.7-0.3-1-1-0.7-1.7C1.8,9.3,2,9,2.3,8.9c0.2-0.1,0.3-0.1,0.5-0.1c0.2,0,0.3,0,0.5,0.1
	c0.7,0.3,1,1,0.7,1.7c-0.1,0.3-0.4,0.6-0.7,0.7C3,11.4,2.7,11.4,2.3,11.3L2.3,11.3z"/>
    <path class="st2" d="M28.4,19.3c0.3,0.1,0.6,0.4,0.7,0.7c0.1,0.3,0.1,0.7,0,1c-0.3,0.7-1,1-1.7,0.7c-0.3-0.1-0.6-0.4-0.7-0.7
	c-0.1-0.3-0.1-0.7,0-1c0.2-0.5,0.7-0.8,1.2-0.8C28.1,19.2,28.3,19.2,28.4,19.3z"/>
    <circle class="st2" cx="1.8" cy="15.3" r="1.5"/>
    <circle class="st2" cx="29" cy="15.3" r="1.5"/>
    <path class="st2" d="M1.2,21.2c-0.4-0.9,0.1-2,1-2.3c0.4-0.2,0.9-0.2,1.4,0c0.4,0.2,0.8,0.5,1,1c0.2,0.4,0.2,0.9,0,1.4
	c-0.2,0.4-0.5,0.8-1,1c-0.4,0.2-0.9,0.2-1.4,0C1.7,22,1.4,21.6,1.2,21.2z"/>
    <path class="st2" d="M26.3,10.8c-0.2-0.4-0.2-0.9,0-1.4c0.2-0.4,0.5-0.8,1-1c0.2-0.1,0.5-0.1,0.7-0.1c0.7,0,1.4,0.4,1.7,1.1
	c0.4,0.9-0.1,2-1,2.3c-0.4,0.2-0.9,0.2-1.4,0C26.8,11.6,26.5,11.2,26.3,10.8L26.3,10.8z"/>
    <path class="st2" d="M19.8,19.7c-0.5,0.5-0.5,1.4,0,1.9c0.5,0.5,1.4,0.5,1.9,0c0.3-0.3,0.4-0.6,0.4-1s-0.1-0.7-0.4-1
	c-0.3-0.3-0.6-0.4-1-0.4C20.4,19.3,20.1,19.4,19.8,19.7L19.8,19.7z M19.7,19.6L19.7,19.6L19.7,19.6z M19.7,19.6L19.7,19.6L19.7,19.6
	z M19.7,19.6c-0.6,0.6-0.6,1.5,0,2c0.6,0.6,1.5,0.6,2,0c0.3-0.3,0.4-0.6,0.4-1c0-0.4-0.1-0.7-0.4-1c-0.3-0.3-0.6-0.4-1-0.4
	S20,19.4,19.7,19.6L19.7,19.6z"/>
    <path class="st2" d="M7.8,14.4c-0.6-0.2-1-0.8-0.8-1.4c0.1-0.3,0.3-0.5,0.5-0.7c0.2-0.1,0.4-0.2,0.6-0.2c0.1,0,0.2,0,0.3,0
	c0.3,0.1,0.5,0.3,0.7,0.5c0.2,0.3,0.2,0.6,0.1,0.9C9,14.2,8.4,14.6,7.8,14.4L7.8,14.4z"/>
    <path class="st2" d="M22.4,18.3c-0.3-0.1-0.5-0.3-0.7-0.5c-0.2-0.3-0.2-0.6-0.1-0.9c0.1-0.3,0.3-0.5,0.5-0.7
	c0.2-0.1,0.4-0.2,0.6-0.2c0.1,0,0.2,0,0.2,0l0.1,0c0.6,0.2,1,0.8,0.8,1.4c-0.1,0.3-0.3,0.5-0.5,0.7C23,18.4,22.7,18.4,22.4,18.3
	L22.4,18.3z"/>
    <path class="st2" d="M7.2,17.5c-0.1-0.5,0.1-1,0.6-1.1l0.1,0c0.5-0.1,1,0.2,1.1,0.6c0.1,0.2,0,0.5-0.1,0.7c-0.1,0.2-0.3,0.4-0.6,0.4
	c-0.2,0.1-0.5,0-0.7-0.1C7.4,17.9,7.2,17.7,7.2,17.5L7.2,17.5z"/>
    <path class="st2" d="M22.3,14.1L22.3,14.1c-0.2-0.1-0.4-0.3-0.4-0.6c-0.1-0.5,0.2-1,0.6-1.1c0.5-0.1,1,0.2,1.1,0.6
	c0.1,0.5-0.2,1-0.6,1.1C22.7,14.3,22.5,14.2,22.3,14.1L22.3,14.1z"/>
    <path class="st2" d="M10.5,21.1L10.5,21.1c-0.3,0.3-0.7,0.3-1,0c-0.3-0.3-0.3-0.7,0-1c0.3-0.3,0.7-0.3,1,0c0.1,0.1,0.2,0.3,0.2,0.5
	C10.7,20.8,10.6,21,10.5,21.1z"/>
    <path class="st2" d="M21.2,9.4c0.1,0.1,0.2,0.3,0.2,0.5s-0.1,0.4-0.2,0.5c-0.3,0.3-0.7,0.3-1,0c-0.1-0.1-0.2-0.3-0.2-0.5
	s0.1-0.4,0.2-0.5c0.1-0.1,0.3-0.2,0.5-0.2C20.9,9.2,21.1,9.3,21.2,9.4L21.2,9.4z"/>
    <path class="st2" d="M14.2,22.2c0.1,0.2,0.2,0.5,0.1,0.7c-0.1,0.2-0.2,0.4-0.4,0.6c-0.2,0.1-0.5,0.2-0.7,0.1
	c-0.5-0.1-0.8-0.6-0.6-1.1c0.1-0.2,0.2-0.4,0.4-0.6c0.2-0.1,0.5-0.2,0.7-0.1C13.9,21.8,14.1,21.9,14.2,22.2L14.2,22.2z"/>
    <path class="st2" d="M16.6,8.4c-0.1-0.2-0.2-0.5-0.1-0.7c0.1-0.2,0.2-0.4,0.4-0.6C17,7.1,17.2,7,17.3,7c0.1,0,0.2,0,0.2,0
	c0.2,0.1,0.4,0.2,0.6,0.4c0.1,0.2,0.2,0.5,0.1,0.7c-0.1,0.5-0.6,0.8-1.1,0.6C16.9,8.8,16.7,8.6,16.6,8.4z"/>
    <path class="st2" d="M17.9,21.6L17.9,21.6c0.3,0.2,0.5,0.4,0.5,0.7c0.2,0.6-0.2,1.2-0.8,1.4c-0.3,0.1-0.6,0-0.9-0.1
	c-0.3-0.2-0.5-0.4-0.5-0.7c-0.1-0.3,0-0.6,0.1-0.9c0.2-0.3,0.4-0.5,0.7-0.5c0.1,0,0.2,0,0.3,0C17.6,21.5,17.8,21.5,17.9,21.6
	L17.9,21.6z"/>
    <path class="st2" d="M13.7,9.1c-0.6,0.2-1.2-0.2-1.4-0.8c-0.2-0.6,0.2-1.2,0.8-1.4c0.1,0,0.2,0,0.3,0c0.5,0,1,0.3,1.1,0.8
	C14.7,8.3,14.3,8.9,13.7,9.1z"/>
    <circle class="st2" cx="10" cy="9.9" r="1.4"/>
</svg>
